<?xml version="1.0" encoding="utf-8"?>
<!-- Generator: Adobe Illustrator 16.0.0, SVG Export Plug-In . SVG Version: 6.00 Build 0)  -->
<!DOCTYPE svg PUBLIC "-//W3C//DTD SVG 1.1//EN" "http://www.w3.org/Graphics/SVG/1.1/DTD/svg11.dtd">
<svg version="1.1" id="Layer_1" xmlns="http://www.w3.org/2000/svg" xmlns:xlink="http://www.w3.org/1999/xlink" x="0px" y="0px"
	 width="612px" height="237.931px" viewBox="0 0 612 237.931" enable-background="new 0 0 612 237.931" xml:space="preserve">
<g>
	<path fill="#383637" d="M117.67,154.162c0,8.329-4.22,12.496-12.663,12.496H62.623c-25.329,0-37.994-12.944-37.994-38.839V69.563
		c0-8.44,4.222-12.665,12.665-12.665h67.036c8.836-0.054,13.256,4.136,13.256,12.582c-0.057,8.217-4.363,12.408-12.917,12.579
		l-54.71-0.083v16.886l37.908-0.171c8.556,0.114,12.834,4.476,12.834,13.087c0.054,8.218-4.138,12.328-12.581,12.328l-38.162,0.082
		v4.222c0,8.611,4.306,12.919,12.917,12.919l42.383,0.083C113.533,141.412,117.67,145.662,117.67,154.162z"/>
	<path fill="#383637" d="M216.538,69.48l-34.192,88.649c-2.028,5.12-4.687,7.84-7.98,8.146c-3.291,0.312-6.361,0.226-9.201-0.251
		c-2.844-0.479-5.446-3.111-7.809-7.895l-33.856-88.821c0-8.44,4.221-12.665,12.665-12.665c5.346,0,8.792,1.481,10.341,4.436
		c1.549,2.951,9.415,25.512,23.6,67.667c14.069-42.155,21.979-64.67,23.724-67.542c1.744-2.872,5.178-4.39,10.3-4.561
		C212.401,56.645,216.538,60.923,216.538,69.48z"/>
	<path fill="#383637" d="M261.817,56.913h16.802c25.439,0,38.16,12.693,38.16,38.076v32.845c0,25.892-12.662,38.836-37.99,38.836
		H261.48c-25.161,0-37.74-12.662-37.74-37.994V95.075C223.74,69.635,236.431,56.913,261.817,56.913z M261.564,82.41
		c-8.331,0-12.497,4.193-12.497,12.579v33.35c0,8.672,4.166,13.002,12.497,13.002h17.054c8.554,0,12.833-4.33,12.833-13.002V94.652
		c0-8.16-4.279-12.242-12.833-12.242H261.564z"/>
	<path fill="#383637" d="M344.354,22.707c8.552,0,12.833,4.307,12.833,12.918v105.364c8.611,0,12.83,4.113,12.664,12.328
		c0,8.5-4.221,12.833-12.664,13.001l-12.665,0.169c-8.442-0.111-12.664-4.361-12.664-12.751V35.625
		C331.857,27.014,336.021,22.707,344.354,22.707z"/>
	<path fill="#383637" d="M478.897,69.48v84.511c0,8.334-4.219,12.496-12.665,12.496l-42.384-0.083
		c-25.326,0-37.993-12.944-37.993-38.839V69.309c0-8.44,4.221-12.665,12.667-12.665c8.44,0,12.665,4.278,12.665,12.836v58.593
		c0,8.666,4.301,13.002,12.912,13.002h29.469V69.48c0-8.558,4.304-12.836,12.915-12.836
		C474.761,56.645,478.897,60.923,478.897,69.48z"/>
	<path fill="#D4B04B" d="M581.378,78.429l-65.264,83.077c-5.518,6.306-11.482,6.699-17.899,1.185
		c-6.19-5.8-6.471-11.905-0.845-18.324l65.013-82.655c5.74-6.471,11.788-6.893,18.15-1.265
		C586.778,65.964,587.063,71.958,581.378,78.429z M498.215,60.446c6.417-5.628,12.496-5.206,18.236,1.265l65.01,82.655
		c5.632,6.419,5.346,12.524-0.842,18.324c-6.42,5.515-12.414,5.121-17.982-1.185l-65.181-83.077
		C491.772,71.958,492.024,65.964,498.215,60.446z"/>
	<path fill="#383637" d="M51.643,188.851v4.732c-2.359-1.933-4.799-2.9-7.323-2.9c-2.779,0-5.122,0.977-7.024,2.938
		c-1.915,1.943-2.875,4.33-2.875,7.146c0,2.78,0.959,5.127,2.875,7.045c1.917,1.912,4.261,2.866,7.042,2.866
		c1.438,0,2.657-0.231,3.662-0.686c0.561-0.231,1.141-0.539,1.744-0.928c0.601-0.391,1.234-0.862,1.899-1.413v4.838
		c-2.335,1.299-4.788,1.95-7.357,1.95c-3.866,0-7.166-1.321-9.897-3.971c-2.721-2.663-4.083-5.883-4.083-9.653
		c0-3.379,1.14-6.385,3.418-9.036c2.803-3.24,6.427-4.858,10.878-4.858C47.03,186.921,49.378,187.565,51.643,188.851z"/>
	<path fill="#383637" d="M73.33,207.515H61.75l-3.013,6.442H54.34l13.384-28.187l12.91,28.187h-4.465L73.33,207.515z
		 M71.666,203.753l-4.012-9.014l-4.206,9.014H71.666z"/>
	<path fill="#383637" d="M86.664,187.438v22.761h7.952v3.759H82.582v-26.52H86.664z"/>
	<path fill="#383637" d="M102.568,187.438v22.761h7.954v3.759H98.486v-26.52H102.568z"/>
	<path fill="#383637" d="M147.527,188.851v4.732c-2.359-1.933-4.799-2.9-7.323-2.9c-2.779,0-5.121,0.977-7.024,2.938
		c-1.914,1.943-2.872,4.33-2.872,7.146c0,2.78,0.958,5.127,2.872,7.045c1.917,1.912,4.262,2.866,7.043,2.866
		c1.437,0,2.656-0.231,3.661-0.686c0.561-0.231,1.141-0.539,1.744-0.928c0.601-0.391,1.234-0.862,1.899-1.413v4.838
		c-2.335,1.299-4.787,1.95-7.358,1.95c-3.865,0-7.163-1.321-9.897-3.971c-2.72-2.663-4.08-5.883-4.08-9.653
		c0-3.379,1.139-6.385,3.415-9.036c2.803-3.24,6.43-4.858,10.879-4.858C142.915,186.921,145.263,187.565,147.527,188.851z"/>
	<path fill="#383637" d="M168.151,191.196h-10.844v6.371h10.528v3.768h-10.528v8.863h10.844v3.759h-14.927v-26.52h14.927V191.196z"
		/>
	<path fill="#383637" d="M172.781,213.957v-28.326l19.725,20.234v-18.428h4.082v28.135l-19.726-20.183v18.567H172.781z"/>
	<path fill="#383637" d="M210.885,191.196v22.761h-4.083v-22.761h-6.219v-3.759h16.503v3.759H210.885z"/>
	<path fill="#383637" d="M235.576,191.196h-10.845v6.371h10.529v3.768h-10.529v8.863h10.845v3.759h-14.927v-26.52h14.927V191.196z"
		/>
	<path fill="#383637" d="M249.824,202.657l8.375,11.3h-4.994l-7.726-10.853h-0.735v10.853h-4.082v-26.52h4.782
		c3.572,0,6.154,0.65,7.744,1.973c1.75,1.464,2.627,3.402,2.627,5.809c0,1.878-0.551,3.487-1.648,4.844
		C253.074,201.412,251.624,202.277,249.824,202.657z M244.745,199.614h1.296c3.866,0,5.799-1.453,5.799-4.345
		c0-2.714-1.88-4.073-5.642-4.073h-1.453V199.614z"/>
	<path fill="#383637" d="M287.591,207.515h-11.579l-3.014,6.442h-4.397l13.385-28.187l12.91,28.187h-4.466L287.591,207.515z
		 M285.929,203.753l-4.012-9.014l-4.203,9.014H285.929z"/>
	<path fill="#383637" d="M316.235,188.851v4.732c-2.357-1.933-4.795-2.9-7.321-2.9c-2.781,0-5.125,0.977-7.027,2.938
		c-1.914,1.943-2.872,4.33-2.872,7.146c0,2.78,0.958,5.127,2.872,7.045c1.917,1.912,4.264,2.866,7.044,2.866
		c1.436,0,2.654-0.231,3.662-0.686c0.56-0.231,1.139-0.539,1.744-0.928c0.599-0.391,1.229-0.862,1.897-1.413v4.838
		c-2.337,1.299-4.786,1.95-7.358,1.95c-3.864,0-7.164-1.321-9.894-3.971c-2.723-2.663-4.084-5.883-4.084-9.653
		c0-3.379,1.137-6.385,3.418-9.036c2.8-3.24,6.426-4.858,10.878-4.858C311.62,186.921,313.967,187.565,316.235,188.851z"/>
	<path fill="#383637" d="M322.355,213.957v-26.52h5.677c2.721,0,4.87,0.263,6.448,0.785c1.689,0.517,3.229,1.396,4.606,2.626
		c2.789,2.5,4.185,5.782,4.185,9.848c0,4.078-1.455,7.375-4.361,9.898c-1.461,1.256-2.991,2.132-4.593,2.623
		c-1.492,0.496-3.613,0.739-6.356,0.739H322.355z M326.434,210.198h1.845c1.835,0,3.356-0.191,4.569-0.571
		c1.216-0.394,2.314-1.033,3.297-1.907c2.007-1.795,3.012-4.136,3.012-7.023c0-2.909-0.994-5.27-2.98-7.076
		c-1.784-1.615-4.416-2.424-7.897-2.424h-1.845V210.198z"/>
	<path fill="#383637" d="M369.654,199.203l4.866,5.769l0.163-0.169c0.522-0.564,1.019-1.112,1.484-1.649
		c0.471-0.539,0.916-1.085,1.353-1.63l2.66,2.678c-0.325,0.456-0.754,0.993-1.287,1.599c-0.531,0.607-1.165,1.301-1.898,2.092
		l5.01,6.065h-5.078l-2.7-3.245c-2.475,2.506-5.052,3.762-7.724,3.762c-2.397,0-4.43-0.748-6.103-2.252
		c-1.633-1.51-2.449-3.377-2.449-5.601c0-2.646,1.299-4.844,3.891-6.596l1.767-1.185c0.023-0.012,0.065-0.04,0.123-0.083
		c0.063-0.052,0.143-0.105,0.242-0.191c-1.78-1.869-2.677-3.708-2.677-5.515c0-1.787,0.6-3.239,1.786-4.361
		c1.217-1.121,2.78-1.687,4.698-1.687c1.855,0,3.389,0.545,4.607,1.633c1.213,1.081,1.821,2.463,1.821,4.121
		c0,1.142-0.334,2.187-1.002,3.114C372.554,196.797,371.372,197.904,369.654,199.203z M366.414,201.449l-0.229,0.157
		c-1.669,1.133-2.811,2.047-3.416,2.731c-0.594,0.688-0.891,1.416-0.891,2.181c0,1.102,0.442,2.106,1.345,3.025
		c0.936,0.879,1.964,1.327,3.082,1.327c1.579,0,3.396-1.021,5.452-3.042L366.414,201.449z M367.288,196.389l0.334-0.245
		c0.573-0.423,1.044-0.794,1.421-1.11c0.371-0.309,0.64-0.577,0.805-0.797c0.349-0.419,0.525-0.941,0.525-1.563
		c0-0.697-0.242-1.265-0.719-1.699c-0.479-0.437-1.122-0.653-1.927-0.653c-0.736,0-1.356,0.223-1.858,0.668
		c-0.502,0.428-0.751,0.968-0.751,1.633c0,0.776,0.314,1.547,0.942,2.306l1.019,1.202
		C367.116,196.187,367.183,196.269,367.288,196.389z"/>
	<path fill="#383637" d="M410.768,207.515h-11.574l-3.018,6.442h-4.396l13.387-28.187l12.907,28.187h-4.464L410.768,207.515z
		 M409.106,203.753l-4.014-9.014l-4.201,9.014H409.106z"/>
	<path fill="#383637" d="M420.473,213.957v-28.326l19.726,20.234v-18.428h4.085v28.135L424.56,195.39v18.567H420.473z"/>
	<path fill="#383637" d="M465.285,207.515h-11.58l-3.015,6.442h-4.393l13.381-28.187l12.913,28.187h-4.473L465.285,207.515z
		 M463.618,203.753l-4.011-9.014l-4.204,9.014H463.618z"/>
	<path fill="#383637" d="M479.025,187.438v22.761h7.955v3.759h-12.031v-26.52H479.025z"/>
	<path fill="#383637" d="M494.024,202.503l-8.831-15.065h4.695l6.183,10.598l6.202-10.598h4.695l-8.865,15.065v11.454h-4.079
		V202.503z"/>
	<path fill="#383637" d="M519.3,191.196v22.761h-4.079v-22.761h-6.22v-3.759h16.501v3.759H519.3z"/>
	<path fill="#383637" d="M533.229,187.438v26.52h-4.081v-26.52H533.229z"/>
	<path fill="#383637" d="M559.717,188.851v4.732c-2.36-1.933-4.801-2.9-7.321-2.9c-2.783,0-5.126,0.977-7.03,2.938
		c-1.912,1.943-2.868,4.33-2.868,7.146c0,2.78,0.956,5.127,2.868,7.045c1.915,1.912,4.265,2.866,7.048,2.866
		c1.436,0,2.654-0.231,3.656-0.686c0.564-0.231,1.145-0.539,1.746-0.928c0.603-0.391,1.233-0.862,1.901-1.413v4.838
		c-2.338,1.299-4.787,1.95-7.355,1.95c-3.868,0-7.167-1.321-9.898-3.971c-2.724-2.663-4.085-5.883-4.085-9.653
		c0-3.379,1.142-6.385,3.42-9.036c2.797-3.24,6.422-4.858,10.877-4.858C555.102,186.921,557.447,187.565,559.717,188.851z"/>
	<path fill="#383637" d="M580.156,191.368l-3.308,1.927c-0.62-1.06-1.208-1.744-1.77-2.063c-0.586-0.366-1.336-0.549-2.261-0.549
		c-1.128,0-2.069,0.312-2.817,0.948c-0.754,0.613-1.125,1.396-1.125,2.335c0,1.295,0.982,2.337,2.943,3.131l2.694,1.079
		c2.2,0.87,3.805,1.935,4.823,3.188c1.014,1.259,1.521,2.798,1.521,4.616c0,2.443-0.824,4.458-2.485,6.054
		c-1.67,1.606-3.742,2.406-6.22,2.406c-2.347,0-4.284-0.686-5.82-2.053c-1.501-1.372-2.443-3.288-2.817-5.766l4.133-0.891
		c0.188,1.559,0.518,2.632,0.982,3.231c0.842,1.142,2.072,1.716,3.679,1.716c1.276,0,2.332-0.42,3.172-1.251
		c0.842-0.839,1.262-1.897,1.262-3.183c0-0.511-0.074-0.984-0.218-1.409c-0.148-0.435-0.373-0.828-0.685-1.185
		c-0.306-0.363-0.711-0.702-1.199-1.014c-0.493-0.319-1.078-0.619-1.755-0.905l-2.612-1.062c-3.698-1.53-5.548-3.779-5.548-6.733
		c0-1.989,0.778-3.656,2.329-4.992c1.55-1.353,3.484-2.023,5.794-2.023C575.975,186.921,578.407,188.402,580.156,191.368z"/>
</g>
</svg>
