<svg xmlns="http://www.w3.org/2000/svg" width="612" height="237.931" viewBox="0 0 612 237.931"><path fill="#383637" d="M117.67 154.162c0 8.33-4.22 12.496-12.663 12.496H62.623c-25.33 0-37.994-12.944-37.994-38.84V69.564c0-8.44 4.22-12.665 12.664-12.665h67.036c8.836-.054 13.256 4.136 13.256 12.582-.057 8.217-4.363 12.408-12.917 12.58l-54.71-.084v16.886l37.907-.17c8.556.113 12.834 4.475 12.834 13.086.055 8.218-4.137 12.328-12.58 12.328l-38.162.082v4.222c0 8.61 4.306 12.92 12.917 12.92l42.383.082c8.275 0 12.412 4.25 12.412 12.75zM216.538 69.48l-34.192 88.65c-2.028 5.12-4.687 7.84-7.98 8.145-3.29.312-6.36.226-9.2-.25-2.845-.48-5.447-3.112-7.81-7.896L123.5 69.307c0-8.44 4.22-12.665 12.665-12.665 5.346 0 8.792 1.48 10.34 4.436 1.55 2.95 9.416 25.51 23.6 67.666 14.07-42.155 21.98-64.67 23.725-67.542 1.744-2.872 5.178-4.39 10.3-4.56 8.27 0 12.408 4.28 12.408 12.836zM261.817 56.913h16.802c25.438 0 38.16 12.693 38.16 38.076v32.844c0 25.892-12.663 38.836-37.99 38.836h-17.31c-25.16 0-37.74-12.662-37.74-37.994v-33.6c0-25.44 12.69-38.163 38.077-38.163zm-.253 25.497c-8.33 0-12.497 4.193-12.497 12.58v33.35c0 8.67 4.166 13 12.497 13h17.054c8.554 0 12.833-4.33 12.833-13V94.65c0-8.16-4.278-12.242-12.832-12.242h-17.054zM344.354 22.707c8.552 0 12.833 4.307 12.833 12.918V140.99c8.61 0 12.83 4.112 12.664 12.327 0 8.5-4.22 12.833-12.663 13l-12.665.17c-8.442-.11-12.664-4.36-12.664-12.75V35.624c0-8.61 4.163-12.918 12.496-12.918zM478.897 69.48v84.51c0 8.335-4.22 12.497-12.665 12.497l-42.384-.083c-25.326 0-37.993-12.944-37.993-38.84V69.31c0-8.44 4.22-12.666 12.667-12.666 8.44 0 12.665 4.278 12.665 12.836v58.593c0 8.666 4.3 13.002 12.912 13.002h29.468V69.48c0-8.558 4.304-12.836 12.915-12.836 8.278 0 12.414 4.28 12.414 12.836z"/><path fill="#D4B04B" d="M581.378 78.43l-65.264 83.076c-5.518 6.306-11.482 6.7-17.9 1.185-6.19-5.8-6.47-11.904-.844-18.323l65.013-82.655c5.74-6.47 11.788-6.893 18.15-1.265 6.245 5.517 6.53 11.51.845 17.982zm-83.163-17.984c6.417-5.628 12.496-5.206 18.236 1.265l65.01 82.656c5.633 6.42 5.347 12.524-.84 18.324-6.42 5.515-12.415 5.12-17.983-1.185l-65.18-83.077c-5.685-6.47-5.433-12.464.758-17.982z"/><path fill="#383637" d="M51.643 188.85v4.733c-2.36-1.933-4.8-2.9-7.323-2.9-2.78 0-5.122.977-7.024 2.938-1.915 1.944-2.875 4.33-2.875 7.147 0 2.78.96 5.127 2.876 7.045 1.917 1.912 4.26 2.866 7.042 2.866 1.438 0 2.657-.23 3.662-.686.56-.23 1.14-.54 1.744-.928.6-.39 1.234-.862 1.9-1.413v4.84c-2.336 1.298-4.79 1.95-7.358 1.95-3.866 0-7.166-1.322-9.897-3.972-2.722-2.663-4.084-5.883-4.084-9.653 0-3.38 1.14-6.385 3.418-9.036 2.803-3.24 6.427-4.86 10.878-4.86 2.428 0 4.776.645 7.04 1.93zM73.33 207.515H61.75l-3.013 6.442H54.34l13.384-28.187 12.91 28.187H76.17l-2.84-6.442zm-1.664-3.762l-4.012-9.014-4.206 9.013h8.218zM86.664 187.438v22.76h7.952v3.76H82.582v-26.52h4.082zM102.568 187.438v22.76h7.954v3.76H98.486v-26.52h4.082zM147.527 188.85v4.733c-2.36-1.933-4.8-2.9-7.323-2.9-2.78 0-5.12.977-7.024 2.938-1.914 1.944-2.872 4.33-2.872 7.147 0 2.78.958 5.127 2.872 7.045 1.917 1.912 4.262 2.866 7.043 2.866 1.437 0 2.656-.23 3.66-.686.562-.23 1.142-.54 1.745-.928.6-.39 1.234-.862 1.9-1.413v4.84c-2.336 1.298-4.788 1.95-7.36 1.95-3.864 0-7.162-1.322-9.896-3.972-2.72-2.663-4.08-5.883-4.08-9.653 0-3.38 1.14-6.385 3.415-9.036 2.803-3.24 6.43-4.86 10.88-4.86 2.428 0 4.776.645 7.04 1.93zM168.15 191.196h-10.843v6.37h10.528v3.77h-10.528v8.862h10.844v3.76h-14.926v-26.52h14.927v3.758zM172.78 213.957V185.63l19.726 20.235v-18.428h4.082v28.135l-19.726-20.183v18.566h-4.08zM210.885 191.196v22.76h-4.083v-22.76h-6.22v-3.76h16.504v3.76h-6.2zM235.576 191.196H224.73v6.37h10.53v3.77h-10.53v8.862h10.846v3.76H220.65v-26.52h14.926v3.758zM249.824 202.657l8.375 11.3h-4.995l-7.726-10.853h-.736v10.853h-4.082v-26.52h4.782c3.572 0 6.154.65 7.744 1.973 1.75 1.464 2.627 3.402 2.627 5.81 0 1.877-.55 3.486-1.648 4.843-1.093 1.35-2.543 2.214-4.343 2.594zm-5.08-3.043h1.297c3.867 0 5.8-1.453 5.8-4.345 0-2.715-1.88-4.074-5.642-4.074h-1.453v8.418zM287.59 207.515h-11.578l-3.014 6.442H268.6l13.386-28.187 12.91 28.187h-4.466l-2.84-6.442zm-1.66-3.762l-4.013-9.014-4.203 9.013h8.215zM316.235 188.85v4.733c-2.357-1.933-4.795-2.9-7.32-2.9-2.782 0-5.126.977-7.028 2.938-1.914 1.944-2.872 4.33-2.872 7.147 0 2.78.958 5.127 2.872 7.045 1.917 1.912 4.264 2.866 7.044 2.866 1.437 0 2.655-.23 3.663-.686.56-.23 1.14-.54 1.744-.928.6-.39 1.23-.862 1.897-1.413v4.84c-2.337 1.298-4.786 1.95-7.358 1.95-3.864 0-7.164-1.322-9.894-3.972-2.723-2.663-4.084-5.883-4.084-9.653 0-3.38 1.137-6.385 3.418-9.036 2.8-3.24 6.426-4.86 10.878-4.86 2.426 0 4.773.645 7.04 1.93zM322.355 213.957v-26.52h5.677c2.72 0 4.87.263 6.448.785 1.69.517 3.23 1.396 4.606 2.626 2.79 2.5 4.185 5.782 4.185 9.848 0 4.078-1.454 7.375-4.36 9.898-1.46 1.256-2.99 2.132-4.593 2.623-1.492.496-3.613.74-6.356.74h-5.605zm4.08-3.76h1.844c1.834 0 3.355-.19 4.568-.57 1.216-.394 2.314-1.033 3.297-1.907 2.007-1.795 3.012-4.136 3.012-7.023 0-2.91-.994-5.27-2.98-7.076-1.784-1.614-4.416-2.423-7.897-2.423h-1.845v19zM369.654 199.203l4.866 5.77.163-.17c.522-.564 1.02-1.112 1.484-1.65.47-.538.916-1.084 1.353-1.63l2.66 2.68c-.325.455-.754.992-1.287 1.598-.53.608-1.165 1.302-1.898 2.093l5.01 6.065h-5.078l-2.7-3.245c-2.475 2.506-5.052 3.762-7.724 3.762-2.397 0-4.43-.748-6.103-2.252-1.633-1.51-2.45-3.377-2.45-5.6 0-2.647 1.3-4.845 3.892-6.597l1.767-1.185c.022-.01.064-.04.122-.082.063-.052.143-.105.242-.19-1.78-1.87-2.677-3.71-2.677-5.516 0-1.787.6-3.24 1.786-4.36 1.217-1.122 2.78-1.688 4.698-1.688 1.856 0 3.39.545 4.608 1.633 1.213 1.08 1.82 2.463 1.82 4.12 0 1.143-.333 2.188-1 3.115-.654.925-1.836 2.032-3.554 3.33zm-3.24 2.246l-.23.156c-1.668 1.133-2.81 2.047-3.415 2.73-.595.69-.892 1.417-.892 2.182 0 1.102.442 2.106 1.345 3.025.936.88 1.964 1.327 3.082 1.327 1.58 0 3.396-1.02 5.452-3.042l-5.343-6.38zm.874-5.06l.334-.246c.573-.423 1.044-.794 1.42-1.11.372-.31.64-.577.806-.797.35-.42.525-.94.525-1.563 0-.697-.242-1.265-.72-1.7-.478-.436-1.12-.652-1.926-.652-.736 0-1.356.223-1.858.668-.503.428-.752.968-.752 1.633 0 .776.314 1.547.942 2.306l1.02 1.2c.036.057.103.14.208.26zM410.768 207.515h-11.574l-3.018 6.442h-4.396l13.387-28.187 12.907 28.187h-4.464l-2.842-6.442zm-1.662-3.762l-4.014-9.014-4.2 9.013h8.214zM420.473 213.957V185.63l19.726 20.235v-18.428h4.084v28.135L424.56 195.39v18.567h-4.087zM465.285 207.515h-11.58l-3.015 6.442h-4.393l13.38-28.187 12.914 28.187h-4.472l-2.833-6.442zm-1.667-3.762l-4.01-9.014-4.205 9.013h8.215zM479.025 187.438v22.76h7.955v3.76h-12.03v-26.52h4.075zM494.024 202.503l-8.83-15.065h4.694l6.183 10.598 6.203-10.598h4.695l-8.865 15.065v11.454h-4.08v-11.454zM519.3 191.196v22.76h-4.08v-22.76H509v-3.76h16.502v3.76H519.3zM533.23 187.438v26.52h-4.082v-26.52h4.08zM559.717 188.85v4.733c-2.36-1.933-4.8-2.9-7.32-2.9-2.784 0-5.127.977-7.03 2.938-1.913 1.944-2.87 4.33-2.87 7.147 0 2.78.957 5.127 2.87 7.045 1.914 1.912 4.264 2.866 7.047 2.866 1.436 0 2.654-.23 3.656-.686.564-.23 1.145-.54 1.746-.928.603-.39 1.233-.862 1.9-1.413v4.84c-2.337 1.298-4.786 1.95-7.354 1.95-3.868 0-7.167-1.322-9.898-3.972-2.724-2.663-4.085-5.883-4.085-9.653 0-3.38 1.14-6.385 3.42-9.036 2.796-3.24 6.42-4.86 10.876-4.86 2.426 0 4.77.645 7.04 1.93zM580.156 191.368l-3.308 1.927c-.62-1.06-1.208-1.744-1.77-2.063-.586-.366-1.336-.55-2.26-.55-1.13 0-2.07.313-2.818.95-.754.612-1.125 1.395-1.125 2.334 0 1.295.982 2.337 2.943 3.13l2.694 1.08c2.2.87 3.805 1.935 4.823 3.188 1.014 1.26 1.52 2.798 1.52 4.616 0 2.443-.823 4.458-2.484 6.054-1.67 1.606-3.74 2.406-6.22 2.406-2.346 0-4.283-.686-5.82-2.053-1.5-1.372-2.442-3.288-2.816-5.766l4.133-.89c.188 1.56.518 2.632.982 3.23.84 1.143 2.07 1.717 3.678 1.717 1.276 0 2.332-.42 3.172-1.25.842-.84 1.262-1.898 1.262-3.184 0-.51-.074-.984-.218-1.41-.148-.434-.373-.827-.685-1.184-.307-.364-.712-.703-1.2-1.015-.493-.32-1.078-.62-1.755-.905l-2.612-1.062c-3.698-1.53-5.548-3.78-5.548-6.733 0-1.99.778-3.656 2.33-4.992 1.55-1.353 3.483-2.023 5.793-2.023 3.127 0 5.56 1.482 7.308 4.448z"/></svg>